HIERARCHY
ROOT hip
{
	OFFSET 0.000000 0.000000 0.000000 
	CHANNELS 6 Xposition Yposition Zposition Xrotation Zrotation Yrotation
	JOINT abdomen
	{
		OFFSET 0.000000 3.402643 0.000000 
		CHANNELS 3 Xrotation Zrotation Yrotation
		JOINT chest
		{
			OFFSET 0.000000 8.438565 -0.680529 
			CHANNELS 3 Xrotation Zrotation Yrotation
			JOINT neck
			{
				OFFSET 0.000000 10.207942 -0.272212 
				CHANNELS 3 Xrotation Zrotation Yrotation
				JOINT head
				{
					OFFSET 0.000000 3.130431 0.000000 
					CHANNELS 3 Xrotation Zrotation Yrotation
					End Site
					{
						OFFSET 0.000000 3.130435 0.000000 
					}
				}
			}
			JOINT lCollar
			{
				OFFSET 3.470700 6.669187 -0.816635 
				CHANNELS 3 Yrotation Zrotation Xrotation
				JOINT lShldr
				{
					OFFSET 3.198488 0.000000 0.000000 
					CHANNELS 3 Zrotation Yrotation Xrotation
					JOINT lForeArm
					{
						OFFSET 10.139888 0.000000 0.000000 
						CHANNELS 3 Yrotation Zrotation Xrotation
						JOINT lHand
						{
							OFFSET 8.370511 0.000000 0.000000 
							CHANNELS 3 Zrotation Yrotation Xrotation
							End Site
							{
								OFFSET 4.083176 0.000000 0.000000 
							}
						}
					}
				}
			}
			JOINT rCollar
			{
				OFFSET -3.470700 6.669187 -0.816635 
				CHANNELS 3 Yrotation Zrotation Xrotation
				JOINT rShldr
				{
					OFFSET -3.198488 0.000000 0.000000 
					CHANNELS 3 Zrotation Yrotation Xrotation
					JOINT rForeArm
					{
						OFFSET -10.139888 0.000000 0.000000 
						CHANNELS 3 Yrotation Zrotation Xrotation
						JOINT rHand
						{
							OFFSET -8.370511 0.000000 0.000000 
							CHANNELS 3 Zrotation Yrotation Xrotation
							End Site
							{
								OFFSET -4.083176 0.000000 0.000000 
							}
						}
					}
				}
			}
		}
	}
	JOINT lThigh
	{
		OFFSET 5.308129 -1.633274 1.361059 
		CHANNELS 3 Xrotation Zrotation Yrotation
		JOINT lShin
		{
			OFFSET -2.041588 -20.007561 0.000000 
			CHANNELS 3 Xrotation Zrotation Yrotation
			JOINT lFoot
			{
				OFFSET 0.000000 -19.190928 -1.224953 
				CHANNELS 3 Xrotation Yrotation Zrotation
				End Site
				{
					OFFSET 0.000000 -2.449906 4.627600 
				}
			}
		}
	}
	JOINT rThigh
	{
		OFFSET -5.308129 -1.633274 1.361059 
		CHANNELS 3 Xrotation Zrotation Yrotation
		JOINT rShin
		{
			OFFSET 2.041588 -20.007561 0.000000 
			CHANNELS 3 Xrotation Zrotation Yrotation
			JOINT rFoot
			{
				OFFSET 0.000000 -19.190928 -1.224953 
				CHANNELS 3 Xrotation Yrotation Zrotation
				End Site
				{
					OFFSET 0.000000 -2.449906 4.627600 
				}
			}
		}
	}
}
MOTION
Frames: 19
Frame Time: 0.011111
-0.967567 45.099155 6.407451 158.552933 177.487106 7.105174 13.020844 4.712883 -1.768685 -25.676600 -5.334834 -0.862005 -32.207237 -2.026706 1.316343 42.355824 0.937271 -0.368118 -5.788594 -15.737329 -1.465587 -48.145527 -3.164357 10.834332 -60.964546 9.338308 12.828897 8.524705 12.647240 8.258410 7.611086 14.174596 -1.900835 49.875469 25.165386 32.159439 80.739983 -6.119442 22.950907 -8.534408 -12.637552 87.113144 -76.761032 0.938857 -10.836200 85.112053 0.497331 -9.626998 -35.913132 8.593291 4.695779 -24.663288 12.194343 6.794875 57.666885 2.995214 7.930622 -52.839775 -2.224202 -7.106716 
-0.938441 45.478115 5.502936 158.011566 177.859970 7.343590 11.774677 3.531065 -1.387969 -25.960262 -5.224850 -0.712403 -31.433886 -2.264032 1.091009 42.915592 1.971123 -0.752317 -5.788594 -15.737329 -1.465587 -48.687336 0.307925 12.141620 -63.501129 9.444878 13.990546 8.524705 12.647240 10.387314 7.611086 14.174596 -1.900835 49.480896 25.306952 32.627159 82.605240 -5.003911 24.251875 -8.534408 -12.637552 91.224472 -78.517136 -0.594173 -11.755219 82.924774 0.204369 -9.568431 -33.957676 7.843394 3.598720 -22.798088 12.086164 8.428717 55.366051 3.237898 7.722503 -51.599110 -3.093940 -7.330104 
-0.906754 45.899006 4.568656 157.756119 179.343521 7.574302 11.129375 0.898545 -1.196621 -26.731108 -4.833635 -0.530977 -30.481932 -2.402284 0.725264 43.463192 2.968018 -1.394737 -5.788594 -15.737329 -1.465587 -48.885376 4.093944 13.916686 -66.036400 9.437171 15.180137 8.524705 12.647240 12.350206 7.611086 14.174596 -1.900835 49.159695 24.925606 32.854881 84.084419 -3.843138 25.514284 -8.534408 -12.637552 95.179550 -79.033012 -2.341536 -11.462025 80.398003 -0.136332 -9.454603 -31.800692 6.868088 2.389862 -20.517233 10.937395 10.556774 53.199642 3.462670 7.527838 -50.701466 -4.218789 -7.946268 
-0.896512 46.329178 3.608452 157.597305 -179.976791 7.945956 10.272156 -0.704446 -0.858155 -26.542269 -4.505301 -0.395296 -29.820299 -2.821951 0.405574 43.437469 4.354853 -1.849069 -5.788594 -15.737329 -1.465587 -49.167389 7.010304 15.423498 -68.496414 9.302634 16.345852 8.524705 12.647240 14.234972 7.611086 14.174596 -1.900835 48.579830 25.125341 32.561817 85.036728 -2.875442 26.589640 -8.534408 -12.637552 98.255722 -79.670547 -3.767411 -11.694263 77.811874 -0.507797 -9.350584 -29.522768 5.867262 1.268626 -18.227825 10.298863 12.095301 51.090546 3.670222 7.313250 -49.633778 -5.040121 -8.140602 
-0.755682 46.741104 2.680254 156.667679 -179.528519 6.480141 8.281445 -2.731608 0.782775 -25.253216 -3.440560 0.040706 -29.936211 -3.403713 0.240782 43.494835 5.724514 -2.023236 -5.788594 -15.737329 -1.465587 -49.812023 8.729048 16.264210 -70.791153 9.058906 17.479019 8.524705 12.647240 15.563095 7.611086 14.174596 -1.900835 47.565834 26.310221 32.191944 85.594307 -2.159408 27.496550 -8.534408 -12.637552 101.449081 -81.344376 -3.182673 -11.560340 75.165932 -0.869046 -9.223181 -27.416645 4.693475 0.231902 -17.201777 10.169065 14.302562 49.184643 3.863587 7.122766 -47.254150 -5.738097 -7.505844 
-0.719834 47.235931 1.743733 156.686935 -178.394775 6.158241 7.833054 -4.889088 1.602524 -25.220835 -2.749331 0.323339 -29.837288 -3.949337 0.106508 44.182190 6.981682 -2.267715 -5.788594 -15.737329 -1.465587 -50.387634 11.071181 17.167694 -72.840813 8.727007 18.504101 8.524705 12.647240 16.568956 7.611086 14.174596 -1.900835 46.645142 26.572014 32.198147 85.933792 -1.635259 28.341284 -8.534408 -12.637552 105.150253 -81.183548 -3.875061 -10.839908 72.197296 -1.249888 -9.047491 -24.947926 3.954078 -0.577302 -15.446102 8.639670 15.015911 47.513271 4.022556 6.942252 -44.696838 -5.675673 -6.266047 
-0.600129 47.739399 0.706391 157.562103 -176.743240 5.801600 8.255994 -8.161315 2.867192 -26.127041 -2.062826 0.829284 -28.479919 -4.150554 -0.531195 44.386711 8.278688 -3.370333 -5.788594 -15.737329 -1.465587 -49.593529 14.267004 19.227287 -74.709610 8.325397 19.474417 8.524705 12.647240 17.262312 7.611086 14.174596 -1.900835 46.356335 25.271135 31.418074 86.133972 -1.326683 29.216072 -8.534408 -12.637552 108.831894 -79.440765 -4.413912 -9.649813 69.090225 -1.660140 -8.848769 -21.733168 3.825490 -1.134963 -12.690176 7.112867 16.610025 46.057137 4.149704 6.783015 -42.448948 -6.242399 -5.718120 
-0.472421 48.151970 -0.199402 157.369797 -175.779037 4.982943 7.630790 -10.594558 4.519370 -26.690823 -1.386942 1.317675 -27.657482 -4.567157 -1.030490 44.332874 9.423867 -4.304764 -5.788594 -15.737329 -1.465587 -49.263687 16.765608 20.597067 -76.433289 7.853724 20.397802 8.524705 12.647240 17.838490 7.611086 14.174596 -1.900835 45.733505 24.623045 30.619896 86.244896 -1.273548 29.974165 -8.534408 -12.637552 112.943222 -79.446053 -4.217526 -8.602037 66.095932 -2.013279 -8.666777 -18.058699 3.788855 -1.653338 -12.173740 5.094414 14.742591 44.983894 4.247557 6.652331 -36.663486 -5.038881 -2.818651 
-0.396885 48.584061 -1.096555 157.538467 -175.377197 4.316479 7.227595 -11.976039 6.021111 -26.932701 -1.021172 1.764468 -27.157150 -4.919516 -1.331981 44.634525 10.523486 -4.819676 -5.788594 -15.737329 -1.465587 -49.119221 18.973932 21.509762 -78.229980 7.237026 21.408855 8.524705 12.647240 18.990831 7.611086 14.174596 -1.900835 44.966572 24.353817 30.031160 86.341133 -1.408897 30.612204 -8.534408 -12.637552 117.142441 -79.000938 -3.905690 -8.014503 63.227592 -2.383215 -8.428396 -15.057130 3.187973 -2.154489 -10.914436 4.381897 14.938257 44.077442 4.316276 6.562145 -32.774128 -5.449547 -1.898917 
-0.362958 49.039837 -2.032755 158.206253 -174.718552 3.053138 7.112719 -13.548908 8.026652 -26.851078 -0.726014 2.391187 -26.993202 -5.358080 -1.572266 45.153545 11.967350 -5.112791 -5.788594 -15.737329 -1.465587 -48.713474 20.733566 22.464411 -79.817253 6.568533 22.352968 8.524705 12.647240 20.455673 7.611086 14.174596 -1.900835 44.149570 24.110001 29.740904 86.456238 -1.655855 31.135885 -8.534408 -12.637552 121.507675 -77.626854 -3.260148 -7.059084 60.687393 -2.656755 -8.230711 -12.049291 2.602072 -2.548848 -9.438268 3.130166 14.709919 43.427052 4.371746 6.478284 -27.987389 -5.042000 -0.513159 
-0.305986 49.404072 -2.887338 158.358795 -174.937164 2.257240 6.728199 -14.097484 9.886636 -27.033089 -0.827921 2.922921 -27.287270 -5.760809 -1.821041 46.276787 13.384356 -5.417570 -5.788594 -15.737329 -1.465587 -48.036854 22.397644 23.561365 -81.113815 5.911819 23.180891 8.524705 12.647240 21.822861 7.611086 14.174596 -1.900835 43.487034 23.745945 29.455532 86.619324 -1.987361 31.655102 -8.534408 -12.637552 126.117050 -77.265419 -2.480555 -6.727045 58.546230 -2.905725 -8.041093 -9.194648 1.466740 -2.913823 -8.644743 2.630708 13.449037 42.893505 4.430571 6.415932 -22.154636 -4.495578 0.839792 
-0.265337 49.743992 -3.749602 158.727051 -175.374008 1.253581 6.370951 -14.230547 11.824859 -26.726276 -0.763897 3.479164 -27.517246 -6.064409 -2.114608 46.837986 14.284367 -5.869768 -5.788594 -15.737329 -1.465587 -47.880966 23.704664 24.264229 -82.307304 5.197015 24.022516 8.524705 12.647240 22.945908 7.611086 14.174596 -1.900835 42.435955 23.814846 29.214195 86.794769 -2.312505 32.058567 -8.534408 -12.637552 130.745956 -76.691437 -1.444325 -6.592963 56.892372 -3.095831 -7.890952 -7.130140 0.145421 -3.154029 -7.773026 2.412241 12.252204 42.677010 4.436296 6.399356 -16.355919 -3.563255 1.917914 
-0.267577 50.090622 -4.631390 159.221954 -176.109192 0.231818 5.996830 -13.484416 12.786923 -26.028856 -0.690756 5.040157 -27.485910 -6.220535 -2.421631 47.035660 15.174232 -6.260062 -5.788594 -15.737329 -1.465587 -47.974209 24.854019 24.582861 -83.386734 4.423621 24.868198 8.524705 12.647240 23.883410 7.611086 14.174596 -1.900835 41.303535 24.034924 29.280018 86.953171 -2.579520 32.339230 -8.534408 -12.637552 135.072128 -76.109085 -0.341325 -6.567838 55.727100 -3.222928 -7.783203 -5.643660 -0.726322 -3.265072 -6.878762 2.368851 10.953688 42.834003 4.433707 6.421651 -10.535504 -2.511317 2.659152 
-0.342154 50.259296 -5.480212 159.830383 -176.872284 -0.557908 5.870211 -12.755497 14.445092 -25.490112 -1.065746 5.416904 -27.412165 -6.473138 -2.627828 47.116245 16.258085 -6.451975 -5.788594 -15.737329 -1.465587 -48.529305 26.132153 23.982615 -84.248161 3.685255 25.659861 8.524705 12.647240 23.893173 7.611086 14.174596 -1.900835 40.287899 24.229509 29.921997 87.090294 -2.795288 32.554302 -8.534408 -12.637552 139.124863 -75.156639 0.440499 -6.788151 55.286259 -3.262120 -7.747343 -5.079240 -1.319567 -3.308967 -6.287803 2.196889 9.097172 43.673065 4.355315 6.513279 -4.553851 -1.912796 3.004199 
-0.412569 50.436935 -6.306628 160.362549 -177.944382 -1.548007 5.823534 -11.627403 16.212671 -25.020027 -1.528284 5.798482 -27.833996 -6.834437 -2.747697 47.749054 17.333647 -6.494150 -5.788594 -15.737329 -1.465587 -49.606949 27.307659 22.666391 -84.917572 3.004929 26.419542 8.524705 12.647240 23.063097 7.611086 14.174596 -1.900835 39.290874 24.280569 30.768763 87.208450 -2.971662 32.722733 -8.534408 -12.637552 143.187363 -74.639923 1.358327 -7.540334 55.462662 -3.252322 -7.756934 -4.777372 -1.126136 -3.283008 -6.135810 2.660624 8.145966 45.170486 4.244879 6.667249 1.257877 -3.529303 3.064417 
-0.482343 50.495186 -7.081194 160.997757 -179.654404 -2.711153 6.079535 -9.707708 17.976494 -24.600098 -2.182462 6.135432 -28.279037 -6.705610 -2.968474 48.407284 18.026548 -6.634324 -5.788594 -15.737329 -1.465587 -51.365719 28.512100 20.301382 -85.433418 2.374031 27.174269 8.524705 12.647240 22.184189 7.611086 14.174596 -1.900835 38.423134 24.345736 31.979956 87.330894 -3.144636 32.881779 -8.534408 -12.637552 147.415878 -74.526520 2.519978 -9.124312 56.373547 -3.154442 -7.840056 -4.848075 -0.414339 -3.213181 -5.982903 4.176589 7.875862 47.542931 4.012921 6.950387 6.189798 -6.975877 3.447881 
-0.595327 50.436935 -7.834956 161.633499 178.742554 -3.617486 6.390519 -7.761593 19.379211 -23.968624 -3.030384 6.369575 -28.566179 -6.360326 -3.247351 48.601479 18.697704 -6.752321 -5.788594 -15.737329 -1.465587 -53.856609 29.461981 16.910772 -85.817139 1.816467 27.984236 8.524705 12.647240 21.471298 7.611086 14.174596 -1.900835 37.809082 24.465267 33.292881 87.413544 -3.255222 32.985508 -8.534408 -12.637552 151.263535 -74.408676 3.301221 -10.527399 57.802578 -2.988246 -7.976417 -5.033403 0.573518 -3.141488 -6.039970 5.423714 7.260893 50.727360 3.709475 7.271575 10.088513 -11.213986 4.423865 
-0.719194 50.306030 -8.569192 162.282440 177.106293 -4.388748 6.814999 -5.661264 20.562439 -23.318859 -3.900365 6.526700 -28.767189 -6.168818 -3.400464 48.626431 19.390358 -6.690547 -5.788594 -15.737329 -1.465587 -57.084885 30.071827 12.838726 -86.046959 1.443862 28.756815 8.524705 12.647240 20.953720 7.611086 14.174596 -1.900835 37.346703 24.471821 34.507389 87.490608 -3.356463 33.079750 -8.534408 -12.637552 154.134628 -74.156258 4.004411 -11.801567 59.495094 -2.812964 -8.115611 -5.211936 1.661067 -3.002239 -6.587433 6.546704 6.142679 54.748962 3.316196 7.652678 13.519758 -16.024687 6.039089 
-0.805293 50.154312 -9.276223 163.036484 175.787048 -5.172904 7.470923 -4.101133 21.652836 -23.350590 -4.752126 6.736505 -28.485277 -5.651301 -3.672331 48.583492 19.877693 -6.826279 -5.788594 -15.737329 -1.465587 -60.301922 30.592913 8.535716 -86.164444 1.281331 29.385515 8.524705 12.647240 20.328722 7.611086 14.174596 -1.900835 37.248169 23.854332 35.895325 87.606079 -3.506360 33.201309 -8.534408 -12.637552 155.697128 -73.540985 4.707214 -12.635839 61.214951 -2.599360 -8.278891 -5.370234 2.541856 -2.917410 -7.663347 7.418297 4.914577 59.554367 2.788372 8.106973 16.978058 -20.912859 8.341290 
